<?xml version="1.0" encoding="utf-8"?>
<!-- Generator: Adobe Illustrator 16.0.0, SVG Export Plug-In . SVG Version: 6.00 Build 0)  -->
<!DOCTYPE svg PUBLIC "-//W3C//DTD SVG 1.1//EN" "http://www.w3.org/Graphics/SVG/1.1/DTD/svg11.dtd">
<svg version="1.1" id="Layer_2" xmlns="http://www.w3.org/2000/svg" xmlns:xlink="http://www.w3.org/1999/xlink" x="0px" y="0px"
	 width="500px" height="500px" viewBox="0 0 500 500" enable-background="new 0 0 500 500" xml:space="preserve">
<g id="Layer_3">
</g>
<g>
	<g>
		<path fill="#58A1D4" d="M150.052,382.259c-2.387,0-4.787-0.799-6.77-2.439c-4.523-3.742-5.157-10.442-1.415-14.966l30.333-36.666
			c3.742-4.523,10.443-5.158,14.966-1.415c4.523,3.742,5.157,10.442,1.415,14.966l-30.333,36.666
			C156.146,380.945,153.11,382.259,150.052,382.259z"/>
	</g>
	<g>
		<path fill="#58A1D4" d="M235.056,382.259c-2.387,0-4.787-0.799-6.77-2.439c-4.523-3.742-5.157-10.442-1.415-14.966l30.333-36.666
			c3.741-4.523,10.442-5.158,14.966-1.415c4.523,3.742,5.157,10.442,1.415,14.966l-30.333,36.666
			C241.15,380.945,238.114,382.259,235.056,382.259z"/>
	</g>
	<g>
		<path fill="#58A1D4" d="M319.061,382.259c-2.387,0-4.788-0.8-6.771-2.44c-4.523-3.742-5.156-10.442-1.413-14.966l30.338-36.666
			c3.742-4.521,10.443-5.156,14.966-1.413c4.523,3.742,5.156,10.442,1.413,14.966l-30.338,36.666
			C325.154,380.945,322.119,382.259,319.061,382.259z"/>
	</g>
	<g>
		<path fill="#58A1D4" d="M159.219,445.452c-2.387,0-4.787-0.799-6.77-2.439c-4.523-3.742-5.157-10.442-1.415-14.966l30.333-36.666
			c3.743-4.524,10.442-5.158,14.966-1.415c4.523,3.742,5.157,10.442,1.415,14.966l-30.333,36.666
			C165.313,444.139,162.278,445.452,159.219,445.452z"/>
	</g>
	<g>
		<path fill="#58A1D4" d="M235.056,382.259c-2.387,0-4.787-0.799-6.77-2.439c-4.523-3.742-5.157-10.442-1.415-14.966l30.333-36.666
			c3.742-4.523,10.442-5.158,14.966-1.415c4.523,3.742,5.157,10.442,1.415,14.966l-30.333,36.666
			C241.15,380.945,238.114,382.259,235.056,382.259z"/>
	</g>
	<g>
		<path fill="#58A1D4" d="M244.223,445.452c-2.387,0-4.787-0.799-6.77-2.439c-4.523-3.742-5.157-10.442-1.415-14.966l30.333-36.666
			c3.743-4.524,10.443-5.158,14.967-1.415c4.523,3.742,5.156,10.442,1.414,14.966l-30.332,36.666
			C250.317,444.139,247.282,445.452,244.223,445.452z"/>
	</g>
	<g>
		<path fill="#58A1D4" d="M235.056,382.259c-2.387,0-4.787-0.799-6.77-2.439c-4.523-3.742-5.157-10.442-1.415-14.966l30.333-36.666
			c3.741-4.523,10.442-5.158,14.966-1.415c4.523,3.742,5.157,10.442,1.415,14.966l-30.333,36.666
			C241.15,380.945,238.114,382.259,235.056,382.259z"/>
	</g>
	<g>
		<path fill="#FFFFFF" d="M374.228,182.543c-5.784-0.989-9.673-6.479-8.687-12.263c0.48-2.822,0.714-5.339,0.714-7.695
			c0-24.343-19.807-44.147-44.151-44.147c-5.059,0-10.15,0.92-15.135,2.733c-4.671,1.7-9.887-0.061-12.573-4.234
			c-16.582-25.754-44.704-41.129-75.227-41.129c-49.363,0-89.522,40.155-89.522,89.514c0,2.199,0.167,4.48,0.344,6.896
			c0.377,5.15-2.999,9.878-8.007,11.137c-22.713,5.706-38.576,26.017-38.576,49.391c0,28.138,22.877,51.03,50.996,51.03h231.155
			c28.141,0,51.034-22.893,51.034-51.03C416.593,207.854,398.775,186.741,374.228,182.543z"/>
		<path fill="#808083" d="M387.499,163.93c0.011-0.45,0.016-0.898,0.016-1.345c0-36.065-29.344-65.407-65.411-65.407
			c-4.828,0-9.654,0.553-14.422,1.649c-20.89-27.869-53.415-44.279-88.513-44.279c-61.085,0-110.782,49.692-110.782,110.773
			c0,0.025,0,0.051,0,0.076c-27.614,10.622-46.239,37.185-46.239,67.347c0,39.861,32.414,72.29,72.256,72.29h231.155
			c39.863,0,72.294-32.429,72.294-72.29C437.853,200.83,417.191,173.299,387.499,163.93z M365.559,283.774H134.403
			c-28.119,0-50.996-22.893-50.996-51.03c0-23.374,15.863-43.685,38.576-49.391c5.009-1.259,8.385-5.986,8.007-11.137
			c-0.177-2.415-0.344-4.696-0.344-6.896c0-49.358,40.16-89.514,89.522-89.514c30.522,0,58.645,15.375,75.227,41.129
			c2.687,4.174,7.902,5.935,12.573,4.234c4.984-1.813,10.076-2.733,15.135-2.733c24.345,0,44.151,19.805,44.151,44.147
			c0,2.356-0.233,4.873-0.714,7.695c-0.986,5.784,2.902,11.273,8.687,12.263c24.548,4.198,42.365,25.311,42.365,50.201
			C416.593,260.882,393.699,283.774,365.559,283.774z"/>
	</g>
</g>
</svg>
